<?xml version="1.0" encoding="UTF-8"?>
<svg version="1.1" viewBox="0 0 1080 1080" width="1080" height="1080" xmlns="http://www.w3.org/2000/svg">
<path transform="translate(198,399)" d="m0 0h11l15 2 18 6 11 6 12 9 8 7 10 13 8 15 5 16 2 12v19l-3 16-2 6 6 2 24 11 26 10 6 2-1 3-4 1-15-5-20-9-17-8-7-4-3 9-7 11-8 10-10 10-15 10-9 4 5 10 16 27 13 22v1l-35 1 5 10-1 3-9-2-14-7-5-4-7 1-14 6-8 2-5-1 1-6 2-2-14-1 1-16 5-42-6-1-16-8-12-9-12-12-10-15-6-14-4-15-1-7v-20l3-16 6-15 6-11 8-10 8-9 14-10 16-8 13-4z" fill="#f00"/>
<path transform="translate(195,426)" d="m0 0 7 1 28 11 2 2-11 2 19 1 17 3 6-1 3-2v4l-7 3-9-2h-4l14 4 10-1v4l-3 1h-10l-16-5-26-4-6-2-1 11 9 5 11 11 14 11 21 16 2 2 2 5 4 2 1 5 17 10 27 13 27 11 12 4-1 3-4 1-15-5-20-9-17-8-7-4-3 9-7 11-8 10-10 10-15 10-9 4 5 10 16 27 13 22v1l-35 1 5 10-1 3-9-2-14-7-5-4-7 1-14 6-8 2-5-1 1-6 2-2-14-1 1-16 6-53 1-13 1-26 1-9v-4l-10-1v-4h10l2-6 2-5 2-3-1-8 3-7-1-11 6-10 3-6 2-1 1-3-6-3-2-3v-5l-18 2 16-16z" fill="#FEFEFE"/>
<path transform="translate(535,556)" d="m0 0 5 2 9 7-6 11-10 17-6 13 7-7 11-9 15-11 7 6 6 5v2l-16 10-18 12 1 6 3 9 15-5 15-7h2l2 7v6l-14 9-19 10-5-1-12-9-3-6-2-8v-6h-2l-3 9-8 21-5-2-8-5-8 1-17 5-5 1h-11l-7-7-6-4-15 8-9 3-9-10-15 8-5 2h-5l-10-10-4-3v-12l4-14 5-9 9-10 9-7 10-4 10-1 7 10v2l5-5 4-2 11 9-2 4-10 16-7 13v2l15-6 5-12 6-10 10-10 11-7 9-4 5 1 17 13-1 7-8 16-4 1-12-8v-4l5-8 1-3-11 7-8 10-4 9-2 13 8-2 21-5 12-4 12-25 12-23zm-120 39-11 4-8 7-6 9-2 7v9l10-4 9-7 6-8 3-9 1-8z" fill="#FEFEFE"/>
<path transform="translate(836,578)" d="m0 0 5 2 9 7-4 7-10 16-7 17v3l10-5 10-9 5-8 12-21 4-3 12 9-1 5-10 16-6 12v2l15-6 5-12 7-11 7-8 10-7 11-5 4 1 14 12 5 4-1 6-6 10-8 6-8 3-14 1-6-1-2 12 23-4 21-7 10-5h2l2 13-17 9-20 7-14 3h-10l-12-11-19 9-6 2-7-7-3-4-4 2-13 8-6 1-12-11-3-2v-7l5-16 10-19 8-12zm88 14-10 7-8 9v1l8-1 7-4 4-8z" fill="#FEFEFE"/>
<path transform="translate(656,560)" d="m0 0 5 1 15 9 5 6 5 13-9 8-17 9-7 3 3 12 16-8 3-1 7 10-1 4-14 8-3 2 7 11v3l-13 8-4-1-8-13v-2l-19 5-16 2-10-14-6-9 1-3 8-7 13-9 13-7h2v-13l2-14 2-7zm-4 16-1 1-1 16 9-3 8-5-4-4-9-5zm-18 40-11 7-7 6v1l13-1 9-2-3-11z" fill="#FEFEFE"/>
<path transform="translate(770,560)" d="m0 0 4 1 7 7 3 2-1 4-15 22-1 3 5 2 11 6 8-14 12-19 9-12 4 2 8 7 2 4-18 27-10 17 4 2 6 4-1 4-7 11-4-1-7-5-3 9-5 10-7-6-8-7 7-15-1-3-14-8-7 12-10 22h-4l-8-8-4-3 3-9 13-24-9-3v-3l7-12 2-1 9 4 12-19z" fill="#FEFEFE"/>
<path transform="translate(328,560)" d="m0 0 4 1 7 7 3 2-1 4-15 22-1 3 5 2 11 6 8-14 12-19 9-12 4 2 8 7 2 4-18 27-10 17 4 2 6 4-1 4-7 11-4-1-7-5-3 9-5 10-7-6-8-7 7-15-1-3-14-8-7 12-10 22h-4l-8-8-4-3 3-9 13-24-9-3v-3l7-12 2-1 9 4 12-19z" fill="#FEFEFE"/>
<path transform="translate(218,496)" d="m0 0 3 4 9 15 6 6 5 1h3l5-6 7-2 3-2 5 3-1 4h2l1-3 6 2 19 10-1 6-8 14-9 11-10 10-15 10-10 4-6-10-5-11-5-19 1-6 4-5 17 2 18 3v-4l-14-2-22-4-1-3 4-1-9-3-3-8h-3l-1-7h-3v-2l6-3z" fill="#f00"/>
</svg>
